<svg width="512" height="512" viewBox="0 0 512 512" fill="none" xmlns="http://www.w3.org/2000/svg">
<path d="M294.186 210.2L345.46 10.229C346.356 6.73372 348.604 3.73759 351.709 1.89973C354.815 0.0618751 358.523 -0.467161 362.018 0.429006C365.513 1.32517 368.51 3.57313 370.347 6.67836C372.185 9.78359 372.714 13.4917 371.818 16.987C371.787 17.109 371.738 17.287 371.704 17.406L314.066 215.641C313.316 218.244 311.571 220.447 309.209 221.773C306.847 223.099 304.057 223.442 301.444 222.728C298.831 222.013 296.605 220.298 295.247 217.955C293.888 215.611 293.507 212.826 294.186 210.204V210.2Z" fill="#FDC464"/>
<path d="M338.577 209.294L418.677 19.024C419.37 17.3773 420.381 15.8832 421.652 14.6271C422.922 13.371 424.428 12.3775 426.082 11.7032C427.737 11.029 429.508 10.6872 431.295 10.6975C433.081 10.7077 434.848 11.0698 436.495 11.763C438.142 12.4562 439.636 13.4669 440.892 14.7375C442.148 16.0081 443.142 17.5136 443.816 19.1682C444.49 20.8227 444.832 22.5939 444.822 24.3805C444.811 26.1671 444.449 27.9343 443.756 29.581C443.708 29.696 443.632 29.865 443.581 29.981L357.442 217.592C356.318 220.057 354.268 221.98 351.736 222.945C349.205 223.911 346.395 223.84 343.915 222.749C341.435 221.658 339.484 219.634 338.485 217.115C337.486 214.597 337.519 211.786 338.577 209.292V209.294Z" fill="#FDC464"/>
<path d="M323.792 94.7351L294.186 210.2C293.517 212.819 293.903 215.597 295.262 217.934C296.621 220.271 298.844 221.98 301.452 222.693C304.06 223.406 306.843 223.066 309.203 221.747C311.562 220.427 313.308 218.232 314.065 215.637L343.629 113.969C337.648 106.937 331.005 100.496 323.792 94.7351Z" fill="#E6B25B"/>
<path d="M234.829 318.252C212.697 318.252 191.063 311.689 172.661 299.393C154.259 287.098 139.916 269.621 131.447 249.174C122.977 228.727 120.761 206.228 125.079 184.521C129.397 162.815 140.054 142.876 155.704 127.227C171.353 111.577 191.292 100.92 212.998 96.6021C234.705 92.2844 257.204 94.5004 277.651 102.97C298.098 111.439 315.575 125.782 327.87 144.184C340.166 162.586 346.729 184.22 346.729 206.352C346.696 236.02 334.896 264.463 313.918 285.441C292.94 306.419 264.497 318.219 234.829 318.252Z" fill="#E6CD2E"/>
<path d="M234.829 282.539C219.761 282.539 205.032 278.071 192.503 269.7C179.974 261.328 170.21 249.43 164.443 235.509C158.677 221.588 157.168 206.269 160.108 191.491C163.048 176.713 170.303 163.138 180.958 152.483C191.613 141.828 205.188 134.572 219.966 131.633C234.745 128.693 250.063 130.202 263.984 135.968C277.905 141.734 289.803 151.499 298.175 164.028C306.546 176.556 311.014 191.286 311.014 206.354C310.991 226.553 302.957 245.917 288.675 260.2C274.392 274.482 255.028 282.516 234.829 282.539Z" fill="#E6BA00"/>
<path d="M234.829 246.831C257.183 246.831 275.305 228.709 275.305 206.355C275.305 184.001 257.183 165.879 234.829 165.879C212.475 165.879 194.353 184.001 194.353 206.355C194.353 228.709 212.475 246.831 234.829 246.831Z" fill="#E6CD2E"/>
<path d="M367.729 140.042L338.577 209.3C337.529 211.793 337.502 214.597 338.503 217.109C339.503 219.622 341.451 221.64 343.926 222.729C346.402 223.818 349.205 223.89 351.734 222.931C354.262 221.972 356.312 220.057 357.441 217.6L389.729 147.28C382.606 144.268 375.248 141.848 367.729 140.042Z" fill="#E6B25B"/>
<path d="M334.293 390.777C356.425 390.777 378.06 384.214 396.461 371.919C414.863 359.623 429.206 342.146 437.675 321.699C446.145 301.252 448.361 278.753 444.043 257.046C439.725 235.34 429.068 215.401 413.418 199.752C397.769 184.102 377.83 173.445 356.124 169.127C334.417 164.81 311.918 167.026 291.471 175.495C271.024 183.964 253.547 198.307 241.252 216.709C228.956 235.111 222.393 256.745 222.393 278.877C222.426 308.545 234.226 336.988 255.204 357.966C276.182 378.944 304.625 390.744 334.293 390.777Z" fill="#FEE333"/>
<path d="M334.293 355.066C349.361 355.066 364.09 350.598 376.619 342.227C389.148 333.855 398.912 321.957 404.679 308.036C410.445 294.115 411.954 278.797 409.014 264.018C406.074 249.24 398.819 235.665 388.164 225.01C377.509 214.355 363.934 207.1 349.156 204.16C334.377 201.22 319.059 202.729 305.138 208.495C291.217 214.262 279.319 224.026 270.947 236.555C262.576 249.084 258.108 263.813 258.108 278.881C258.131 299.08 266.165 318.444 280.447 332.727C294.73 347.009 314.094 355.043 334.293 355.066Z" fill="#FECE00"/>
<path d="M334.293 319.356C356.647 319.356 374.769 301.234 374.769 278.88C374.769 256.526 356.647 238.404 334.293 238.404C311.939 238.404 293.817 256.526 293.817 278.88C293.817 301.234 311.939 319.356 334.293 319.356Z" fill="#FEE333"/>
<path d="M328.07 427.123H141.587V512H328.07V427.123Z" fill="#EEECED"/>
<path d="M182.794 427.123H141.587V512H182.794V427.123Z" fill="#D4D2D3"/>
<path d="M135.365 390.777C113.233 390.777 91.5987 384.214 73.1968 371.919C54.795 359.623 40.4525 342.146 31.983 321.699C23.5136 301.252 21.2976 278.753 25.6153 257.046C29.933 235.34 40.5904 215.401 56.2399 199.752C71.8894 184.102 91.8281 173.445 113.535 169.127C135.241 164.81 157.74 167.026 178.187 175.495C198.634 183.964 216.111 198.307 228.407 216.709C240.702 235.111 247.265 256.745 247.265 278.877C247.232 308.545 235.432 336.988 214.454 357.966C193.476 378.944 165.033 390.744 135.365 390.777Z" fill="#FECE00"/>
<path d="M135.365 355.066C120.297 355.066 105.567 350.598 93.0389 342.227C80.5103 333.855 70.7455 321.957 64.9792 308.036C59.2129 294.115 57.7042 278.797 60.6438 264.018C63.5835 249.24 70.8394 235.665 81.494 225.01C92.1487 214.355 105.724 207.1 120.502 204.16C135.28 201.22 150.599 202.729 164.52 208.495C178.441 214.262 190.339 224.026 198.71 236.555C207.082 249.084 211.55 263.813 211.55 278.881C211.527 299.08 203.493 318.444 189.211 332.727C174.928 347.009 155.563 355.043 135.365 355.066Z" fill="#FEE333"/>
<path d="M135.365 319.356C157.719 319.356 175.841 301.234 175.841 278.88C175.841 256.526 157.719 238.404 135.365 238.404C113.011 238.404 94.8889 256.526 94.8889 278.88C94.8889 301.234 113.011 319.356 135.365 319.356Z" fill="#FECE00"/>
<path d="M234.829 282.539L1.10913 311C5.94324 353.225 26.1419 392.197 57.8569 420.49C89.572 448.783 130.587 464.42 173.088 464.423H296.569C339.07 464.421 380.086 448.784 411.801 420.491C443.516 392.197 463.715 353.226 468.548 311L234.829 282.539Z" fill="#F9545B"/>
<path d="M42.3161 311L255.429 285.049L234.829 282.54L1.10913 311C5.94324 353.225 26.1419 392.197 57.8569 420.49C89.572 448.783 130.587 464.42 173.088 464.423H214.295C171.794 464.42 130.779 448.783 99.0639 420.49C67.3489 392.197 47.1502 353.225 42.3161 311Z" fill="#E64047"/>
<path d="M469.658 268.52V291.334C469.661 297.905 469.291 304.471 468.55 311H1.109C0.367593 304.471 -0.00233656 297.906 0.000998917 291.335V268.52H469.658Z" fill="#EEECED"/>
<path d="M41.207 268.52H1.67215e-05V291.334C-0.00286631 297.905 0.367061 304.471 1.10802 311H42.315C41.5736 304.471 41.2037 297.906 41.207 291.335V268.52Z" fill="#D4D2D3"/>
</svg>
